<svg xmlns="http://www.w3.org/2000/svg" width="75.34" height="79.936" viewBox="0 0 75.34 79.936">
  <g id="Icon_zocial-www" data-name="Icon zocial-www" transform="translate(-14.782 0.156)">
    <g id="Group_8" data-name="Group 8" transform="translate(14.782 -0.156)">
      <path id="Path_9" data-name="Path 9" d="M63.307,95.748,104.87,16.4" transform="translate(-55.262 -16.4)"/>
      <path id="Path_10" data-name="Path 10" d="M127.489,95.748,169.053,16.4" transform="translate(-108.803 -16.4)"/>
      <path id="Path_11" data-name="Path 11" d="M151.753,95.747,193.3,16.472" transform="translate(-129.033 -16.4)"/>
      <path id="Path_12" data-name="Path 12" d="M218.509,95.748,260.073,16.4" transform="translate(-184.733 -16.4)"/>
      <path id="Path_13" data-name="Path 13" d="M31.2,96.336,73.072,16.4" transform="translate(-14.782 -16.4)"/>
      <path id="Path_14" data-name="Path 14" d="M14.782,96.336,56.654,16.4" transform="translate(-14.782 -16.4)"/>
      <path id="Path_15" data-name="Path 15" d="M18.864,53.094h70.42" transform="translate(-14.782 -16.4)"/>
      <path id="Path_16" data-name="Path 16" d="M18.864,27.257h70.42" transform="translate(-14.782 -16.4)"/>
      <path id="Path_17" data-name="Path 17" d="M18.864,84.718h70.42" transform="translate(-14.782 -16.4)"/>
      <path id="Path_18" data-name="Path 18" d="M18.864,58.877h70.42" transform="translate(-14.782 -16.4)"/>
      <path id="Path_19" data-name="Path 19" d="M99.693,95.747,80.758,16.4" transform="translate(-64.318 -16.4)"/>
      <path id="Path_20" data-name="Path 20" d="M151.753,95.748,132.936,16.895" transform="translate(-103.447 -16.4)"/>
      <path id="Path_21" data-name="Path 21" d="M212.215,95.748,193.28,16.4" transform="translate(-148.8 -16.4)"/>
    </g>
    <path id="Path_56" data-name="Path 56" d="M105.48,111.689a39.012,39.012,0,0,0-37.29,26.748h5.526a31.871,31.871,0,0,1,2.055-4.423H86.405a44.815,44.815,0,0,0-1.161,4.423h5.387a41.58,41.58,0,0,1,1.358-4.423h10.263v4.423h5.2v-4.423H118.54a38.8,38.8,0,0,1,1.521,4.423h5.387a43.5,43.5,0,0,0-1.3-4.423h11.041a31.859,31.859,0,0,1,2.055,4.423h5.514A39,39,0,0,0,105.48,111.689Zm7.848,6.118a33.88,33.88,0,0,1,18.238,11.006h-9.647a36.484,36.484,0,0,0-8.591-11.006Zm-17.217.383a34.537,34.537,0,0,0-7.662,10.623H79.393A33.838,33.838,0,0,1,96.111,118.19Zm11.342,1.672a29.975,29.975,0,0,1,8.394,8.951h-8.394Zm-5.2.035v8.916H94.416A27.534,27.534,0,0,1,102.252,119.9ZM69.746,143.464a2.222,2.222,0,0,0-1.3.36,1.069,1.069,0,0,0-.522.894,3.433,3.433,0,0,0,.244,1.091l2.763,7.941c.084.237.181.505.29.789a2.715,2.715,0,0,0,.441.755,1.815,1.815,0,0,0,.731.511,3.079,3.079,0,0,0,1.161.186,2.656,2.656,0,0,0,1.382-.313,1.894,1.894,0,0,0,.731-.685,12.462,12.462,0,0,0,.511-1.173l2.473-6.966,2.461,7c.2.519.368.9.5,1.149a1.841,1.841,0,0,0,.72.685,2.729,2.729,0,0,0,1.393.3,2.689,2.689,0,0,0,1.428-.313,1.871,1.871,0,0,0,.708-.72,11.5,11.5,0,0,0,.476-1.207l2.763-7.941a3.816,3.816,0,0,0,.255-1.091,1.061,1.061,0,0,0-.534-.894,2.237,2.237,0,0,0-1.289-.36,2.045,2.045,0,0,0-1.173.279,1.59,1.59,0,0,0-.557.615,6.491,6.491,0,0,0-.313.871l-1.95,6.757-2.183-6.327a11.837,11.837,0,0,0-.5-1.161,1.994,1.994,0,0,0-.731-.708,2.778,2.778,0,0,0-1.474-.325,2.926,2.926,0,0,0-1.474.313,2.016,2.016,0,0,0-.778.731,8.423,8.423,0,0,0-.5,1.149l-2.171,6.327-1.962-6.8a3.861,3.861,0,0,0-.592-1.242,1.717,1.717,0,0,0-1.428-.476Zm26.737,0a2.222,2.222,0,0,0-1.3.36,1.069,1.069,0,0,0-.522.894,3.52,3.52,0,0,0,.255,1.091l2.763,7.941c.084.237.181.505.29.789a2.686,2.686,0,0,0,.43.755,1.815,1.815,0,0,0,.731.511,3.079,3.079,0,0,0,1.161.186,2.7,2.7,0,0,0,1.393-.313,1.853,1.853,0,0,0,.72-.685,12.464,12.464,0,0,0,.511-1.173l2.473-6.966,2.461,7c.2.519.368.9.5,1.149a1.841,1.841,0,0,0,.72.685,2.729,2.729,0,0,0,1.393.3,2.689,2.689,0,0,0,1.428-.313,1.871,1.871,0,0,0,.708-.72,11.5,11.5,0,0,0,.476-1.207l2.763-7.941a3.816,3.816,0,0,0,.255-1.091,1.061,1.061,0,0,0-.534-.894,2.237,2.237,0,0,0-1.289-.36,2.045,2.045,0,0,0-1.173.279,1.59,1.59,0,0,0-.557.615,6.492,6.492,0,0,0-.313.871l-1.95,6.757-2.183-6.327a11.837,11.837,0,0,0-.5-1.161,1.95,1.95,0,0,0-.72-.708,2.778,2.778,0,0,0-1.474-.325,2.974,2.974,0,0,0-1.486.313,2.016,2.016,0,0,0-.778.731,8.424,8.424,0,0,0-.5,1.149l-2.171,6.327-1.962-6.8a3.858,3.858,0,0,0-.58-1.242,1.744,1.744,0,0,0-1.44-.476Zm26.737,0a2.222,2.222,0,0,0-1.3.36,1.069,1.069,0,0,0-.522.894,3.52,3.52,0,0,0,.255,1.091l2.763,7.941c.084.237.181.505.29.789a2.686,2.686,0,0,0,.43.755,1.815,1.815,0,0,0,.731.511,3.079,3.079,0,0,0,1.161.186,2.7,2.7,0,0,0,1.393-.313,1.853,1.853,0,0,0,.72-.685,11.9,11.9,0,0,0,.522-1.173l2.461-6.966,2.461,7c.2.519.368.9.5,1.149a1.841,1.841,0,0,0,.72.685,2.729,2.729,0,0,0,1.393.3,2.689,2.689,0,0,0,1.428-.313,1.871,1.871,0,0,0,.708-.72,11.5,11.5,0,0,0,.476-1.207l2.763-7.941a3.816,3.816,0,0,0,.255-1.091,1.048,1.048,0,0,0-.522-.894,2.275,2.275,0,0,0-1.3-.36,2.045,2.045,0,0,0-1.173.279,1.59,1.59,0,0,0-.557.615,6.491,6.491,0,0,0-.313.871l-1.939,6.757-2.194-6.327a11.837,11.837,0,0,0-.5-1.161,1.95,1.95,0,0,0-.72-.708,2.778,2.778,0,0,0-1.474-.325,2.974,2.974,0,0,0-1.486.313,2.016,2.016,0,0,0-.778.731,8.423,8.423,0,0,0-.5,1.149l-2.171,6.327-1.95-6.8a3.861,3.861,0,0,0-.592-1.242,1.744,1.744,0,0,0-1.44-.476ZM67.993,160.332a39.329,39.329,0,0,0,74.974,0h-5.491a32.036,32.036,0,0,1-1.881,4.33H124.45a44.244,44.244,0,0,0,1.2-4.33H120.34a36.358,36.358,0,0,1-1.358,4.33H107.453v-4.33h-5.2v4.33H91.722a44.007,44.007,0,0,1-1.231-4.33h-5.34c.3,1.466.664,2.913,1.08,4.33H75.365a32.094,32.094,0,0,1-1.892-4.33h-5.48Zm10.785,9.531H88.1a33.026,33.026,0,0,0,7.674,11.319A33.762,33.762,0,0,1,78.778,169.864Zm15.116,0h8.359v9.717A24.778,24.778,0,0,1,93.893,169.864Zm13.56,0h8.939a28.484,28.484,0,0,1-8.939,9.473Zm14.918,0h9.81a33.827,33.827,0,0,1-19.109,11.853,35.014,35.014,0,0,0,9.3-11.853Z" transform="translate(-53.049 -109.915)"/>
  </g>
</svg>
